<svg width="64" height="64" viewBox="0 0 64 64" fill="none" xmlns="http://www.w3.org/2000/svg">
    <!-- A solid, clean background circle -->
    <circle cx="32" cy="32" r="32" fill="#4F46E5"/>

    <path d="M42.6667 42.6667V53.3333H21.3333V42.6667M42.6667 42.6667C42.6667 38.8953 45.562 36 49.3333 36H50.6667C54.438 36 57.3333 33.1047 57.3333 29.3333C57.3333 25.562 54.438 22.6667 50.6667 22.6667C50.6667 15.4213 45.2453 9.33333 38.6667 9.33333C37.0373 9.33333 35.488 9.712 34.096 10.3947C31.504 4.56533 25.792 1.33333 19.3333 2.66667C11.3707 4.26667 6.66667 11.2 6.66667 19.3333C6.66667 20.9627 6.944 22.512 7.44533 23.904C4.56533 26.496 2.66667 30.56 3.488 34.6667C4.26667 38.6133 7.86133 41.3333 12 41.3333H21.3333M42.6667 42.6667H21.3333" stroke="white" stroke-width="4" stroke-linecap="round" stroke-linejoin="round" fill="none"/>
</svg>